<?xml version="1.0" encoding="utf-8"?>
<!-- Generator: Adobe Illustrator 15.0.0, SVG Export Plug-In . SVG Version: 6.00 Build 0)  -->
<!DOCTYPE svg PUBLIC "-//W3C//DTD SVG 1.1//EN" "http://www.w3.org/Graphics/SVG/1.1/DTD/svg11.dtd">
<svg version="1.1" id="Capa_1" xmlns="http://www.w3.org/2000/svg" xmlns:xlink="http://www.w3.org/1999/xlink" x="0px" y="0px"
	 width="438.371px" height="417.239px" viewBox="114.721 227.2 438.371 417.239"
	 enable-background="new 114.721 227.2 438.371 417.239" xml:space="preserve">
<g>
	<g>
		<path fill="#f2f5f8" d="M456.194,468.997c6.641,0,12.25-4.279,14.361-10.2h52.875c2.111,5.921,7.722,10.2,14.361,10.2
			c8.436,0,15.3-6.865,15.3-15.3s-6.864-15.3-15.3-15.3c-6.64,0-12.25,4.279-14.361,10.2h-52.88
			c-2.111-5.921-7.721-10.2-14.361-10.2c-8.435,0-15.299,6.864-15.299,15.3C440.891,462.132,447.76,468.997,456.194,468.997z
			 M537.792,448.598c2.811,0,5.1,2.284,5.1,5.1s-2.289,5.101-5.1,5.101c-2.81,0-5.1-2.285-5.1-5.101
			S534.982,448.598,537.792,448.598z M456.194,448.598c2.811,0,5.101,2.284,5.101,5.1s-2.29,5.1-5.101,5.1
			c-2.81,0-5.1-2.284-5.1-5.1S453.385,448.598,456.194,448.598z"/>
	</g>
</g>
<g>
	<g>
		<path fill="#f2f5f8" d="M407.396,440.459v31.538c0,1.356,0.535,2.651,1.494,3.605l20.398,20.399
			c0.955,0.958,2.255,1.494,3.606,1.494h16.237c2.111,5.921,7.722,10.199,14.361,10.199c8.436,0,15.3-6.864,15.3-15.3
			c0-8.435-6.864-15.299-15.3-15.299c-6.64,0-12.25,4.278-14.361,10.199h-14.126l-17.411-17.41v-29.427
			c5.922-2.111,10.2-7.721,10.2-14.36c0-8.436-6.864-15.3-15.3-15.3s-15.3,6.864-15.3,15.3
			C397.196,432.738,401.475,438.348,407.396,440.459z M463.494,487.296c2.81,0,5.1,2.285,5.1,5.1c0,2.815-2.29,5.101-5.1,5.101
			s-5.1-2.285-5.1-5.101C458.395,489.581,460.685,487.296,463.494,487.296z M412.496,420.998c2.811,0,5.1,2.285,5.1,5.101
			c0,2.814-2.289,5.1-5.1,5.1s-5.1-2.285-5.1-5.1C407.396,423.283,409.686,420.998,412.496,420.998z"/>
	</g>
</g>
<g>
	<g>
		<path fill="#f2f5f8" d="M315.6,420.998c2.355,0,4.559-0.576,6.553-1.535l8.746,8.747v48.887c0,1.356,0.536,2.651,1.494,3.605
			l51.039,51.039c-0.959,1.994-1.535,4.197-1.535,6.553c0,8.436,6.865,15.3,15.3,15.3c8.436,0,15.3-6.864,15.3-15.3
			c0-8.435-6.864-15.299-15.3-15.299c-2.355,0-4.559,0.576-6.553,1.535l-49.546-49.545v-48.887c0-1.357-0.535-2.652-1.494-3.606
			l-10.24-10.24c0.959-1.994,1.535-4.197,1.535-6.553c0-8.436-6.863-15.3-15.299-15.3s-15.3,6.864-15.3,15.3
			C300.3,414.134,307.164,420.998,315.6,420.998z M397.196,533.194c2.81,0,5.101,2.285,5.101,5.1c0,2.815-2.291,5.101-5.101,5.101
			s-5.099-2.285-5.099-5.101C392.098,535.479,394.387,533.194,397.196,533.194z M315.6,400.6c2.81,0,5.1,2.284,5.1,5.1
			c0,2.814-2.29,5.1-5.1,5.1c-2.811,0-5.101-2.285-5.101-5.1C310.499,402.884,312.789,400.6,315.6,400.6z"/>
	</g>
</g>
<g>
	<g>
		<path fill="#f2f5f8" d="M401.747,299.536v-21.338c0-1.356-0.535-2.652-1.494-3.605l-35.698-35.699
			c-0.954-0.958-2.255-1.494-3.605-1.494h-26.438c-2.111-5.921-7.722-10.199-14.361-10.199c-8.436,0-15.3,6.864-15.3,15.3
			c0,8.435,6.864,15.299,15.3,15.299c6.64,0,12.25-4.278,14.361-10.199h24.325l32.711,32.71v19.227
			c-5.921,2.111-10.199,7.721-10.199,14.361c0,8.435,6.864,15.299,15.299,15.299c8.436,0,15.3-6.864,15.3-15.299
			C411.947,307.257,407.669,301.647,401.747,299.536z M320.15,247.6c-2.81,0-5.101-2.285-5.101-5.1c0-2.815,2.291-5.101,5.101-5.101
			s5.1,2.285,5.1,5.101C325.25,245.314,322.96,247.6,320.15,247.6z M396.647,318.997c-2.81,0-5.1-2.285-5.1-5.1
			c0-2.815,2.29-5.101,5.1-5.101c2.811,0,5.1,2.285,5.1,5.101C401.747,316.712,399.458,318.997,396.647,318.997z"/>
	</g>
</g>
<g>
	<g>
		<path fill="#f2f5f8" d="M350.094,299.26v73.28c-5.916,2.111-10.195,7.721-10.195,14.36c0,8.435,6.864,15.3,15.3,15.3
			c6.64,0,12.25-4.279,14.361-10.2h52.875c2.111,5.921,7.722,10.2,14.361,10.2s12.249-4.279,14.36-10.2h29.427l18.945,18.946
			c-0.959,1.994-1.535,4.197-1.535,6.553c0,8.436,6.864,15.3,15.3,15.3c8.435,0,15.3-6.864,15.3-15.3s-6.865-15.299-15.3-15.299
			c-2.356,0-4.56,0.576-6.554,1.535L486.3,383.294c-0.954-0.958-2.255-1.494-3.605-1.494h-31.538
			c-2.111-5.92-7.721-10.199-14.36-10.199s-12.25,4.279-14.361,10.199h-52.88c-1.541-4.318-4.941-7.721-9.262-9.26v-73.28
			c5.921-2.111,10.199-7.722,10.199-14.36c0-8.436-6.863-15.301-15.299-15.301s-15.299,6.865-15.299,15.301
			C339.895,291.538,344.173,297.148,350.094,299.26z M513.293,412.399c2.81,0,5.1,2.285,5.1,5.1c0,2.815-2.29,5.101-5.1,5.101
			s-5.1-2.285-5.1-5.101C508.193,414.685,510.483,412.399,513.293,412.399z M436.796,381.8c2.81,0,5.1,2.285,5.1,5.101
			s-2.29,5.1-5.1,5.1s-5.101-2.284-5.101-5.1S433.986,381.8,436.796,381.8z M355.198,279.804c2.81,0,5.1,2.285,5.1,5.1
			c0,2.815-2.29,5.1-5.1,5.1s-5.101-2.284-5.101-5.1C350.098,282.089,352.389,279.804,355.198,279.804z M355.198,381.8
			c2.81,0,5.1,2.285,5.1,5.101s-2.29,5.1-5.1,5.1s-5.101-2.284-5.101-5.1S352.389,381.8,355.198,381.8z"/>
	</g>
</g>
<g>
	<g>
		<path fill="#f2f5f8" d="M366.598,450.659v16.237c0,1.356,0.535,2.652,1.494,3.605l61.238,61.239
			c-0.958,1.994-1.534,4.197-1.534,6.553c0,8.436,6.864,15.3,15.299,15.3c6.64,0,12.25-4.278,14.361-10.199h21.338
			c2.814,0,5.1-2.28,5.1-5.101v-13.188l18.946-18.946c1.993,0.959,4.196,1.535,6.553,1.535c8.436,0,15.3-6.864,15.3-15.3
			c0-8.435-6.864-15.299-15.3-15.299c-8.435,0-15.3,6.864-15.3,15.299c0,2.356,0.577,4.56,1.535,6.554l-20.439,20.44
			c-0.959,0.953-1.494,2.249-1.494,3.605v10.199h-16.238c-2.111-5.921-7.722-10.199-14.361-10.199c-2.355,0-4.559,0.576-6.553,1.535
			l-59.745-59.745v-14.126c5.922-2.111,10.2-7.722,10.2-14.361c0-8.436-6.864-15.3-15.3-15.3c-8.435,0-15.299,6.864-15.299,15.3
			C356.398,442.938,360.677,448.548,366.598,450.659z M509.393,487.296c2.811,0,5.1,2.285,5.1,5.1c0,2.815-2.289,5.101-5.1,5.101
			c-2.81,0-5.1-2.285-5.1-5.101C504.293,489.581,506.583,487.296,509.393,487.296z M443.095,533.194c2.811,0,5.1,2.285,5.1,5.1
			c0,2.815-2.289,5.101-5.1,5.101c-2.81,0-5.1-2.285-5.1-5.101C437.995,535.479,440.285,533.194,443.095,533.194z M371.697,431.198
			c2.811,0,5.1,2.284,5.1,5.1s-2.289,5.1-5.1,5.1s-5.1-2.284-5.1-5.1S368.887,431.198,371.697,431.198z"/>
	</g>
</g>
<g>
	<g>
		<path fill="#f2f5f8" d="M114.721,258.805h60.025l29.104,29.104c0.954,0.959,2.254,1.495,3.605,1.495h53.987l12.311,12.311v41.676
			l-39.345,39.346c-1.994-0.959-4.197-1.535-6.554-1.535c-8.435,0-15.3,6.864-15.3,15.299c0,8.435,6.865,15.3,15.3,15.3
			c8.436,0,15.3-6.865,15.3-15.3c0-2.355-0.576-4.559-1.535-6.553l40.84-40.84c0.958-0.953,1.494-2.248,1.494-3.605v-45.898
			c0-1.355-0.536-2.651-1.494-3.605l-15.3-15.299c-0.954-0.959-2.254-1.494-3.605-1.494l-53.987-0.001l-29.104-29.104
			c-0.954-0.959-2.254-1.494-3.605-1.494h-62.136V258.805z M227.855,401.601c-2.81,0-5.1-2.286-5.1-5.101c0-2.814,2.29-5.1,5.1-5.1
			c2.811,0,5.1,2.285,5.1,5.1C232.955,399.314,230.666,401.601,227.855,401.601z"/>
	</g>
</g>
<g>
	<g>
		<path fill="#f2f5f8" d="M274.801,431.198c2.355,0,4.559-0.577,6.553-1.535l18.946,18.945v29.427
			c-5.921,2.111-10.2,7.721-10.2,14.36c0,8.436,6.865,15.3,15.3,15.3s15.3-6.864,15.3-15.3c0-6.64-4.279-12.249-10.2-14.36v-31.538
			c0-1.356-0.535-2.651-1.494-3.605l-20.44-20.439c0.959-1.994,1.535-4.197,1.535-6.554c0-6.64-4.278-12.25-10.199-14.361v-3.927
			l39.305-39.305c0.959-0.953,1.494-2.248,1.494-3.605v-6.037c5.921-2.111,10.199-7.722,10.199-14.361
			c0-6.641-4.278-12.25-10.199-14.361v-12.082c5.921-2.111,10.199-7.721,10.199-14.361c0-8.435-6.863-15.299-15.299-15.299
			s-15.3,6.864-15.3,15.299c0,6.641,4.278,12.25,10.199,14.361v12.082c-5.921,2.111-10.199,7.721-10.199,14.361
			c0,6.64,4.278,12.25,10.199,14.361v3.927l-39.304,39.304c-0.959,0.953-1.494,2.249-1.494,3.605v6.038
			c-5.922,2.111-10.2,7.722-10.2,14.361C259.501,424.334,266.365,431.198,274.801,431.198z M305.399,487.296
			c2.81,0,5.1,2.285,5.1,5.1c0,2.815-2.29,5.101-5.1,5.101s-5.1-2.285-5.1-5.101C300.3,489.581,302.59,487.296,305.399,487.296z
			 M315.6,288.403c2.81,0,5.1,2.285,5.1,5.1s-2.29,5.1-5.1,5.1c-2.811,0-5.101-2.285-5.101-5.1S312.789,288.403,315.6,288.403z
			 M315.6,329.201c2.81,0,5.1,2.285,5.1,5.101c0,2.814-2.29,5.1-5.1,5.1c-2.811,0-5.101-2.285-5.101-5.1
			C310.499,331.486,312.789,329.201,315.6,329.201z M274.801,410.799c2.81,0,5.1,2.284,5.1,5.1s-2.29,5.1-5.1,5.1
			c-2.811,0-5.1-2.284-5.1-5.1S271.99,410.799,274.801,410.799z"/>
	</g>
</g>
<g>
	<g>
		<path fill="#f2f5f8" d="M499.994,547.543c0,2.355,0.576,4.559,1.535,6.553l-8.747,8.746h-48.887c-1.356,0-2.651,0.536-3.605,1.494
			l-51.039,51.039c-1.994-0.959-4.197-1.535-6.553-1.535c-8.436,0-15.3,6.865-15.3,15.3c0,8.436,6.864,15.3,15.3,15.3
			c8.435,0,15.299-6.864,15.299-15.3c0-2.355-0.576-4.559-1.535-6.553l49.545-49.546h48.887c1.357,0,2.652-0.535,3.606-1.494
			l10.24-10.24c1.994,0.959,4.197,1.535,6.553,1.535c8.436,0,15.3-6.863,15.3-15.299s-6.864-15.3-15.3-15.3
			C506.858,532.243,499.994,539.107,499.994,547.543z M387.798,629.14c0,2.81-2.285,5.101-5.1,5.101
			c-2.815,0-5.101-2.291-5.101-5.101s2.285-5.099,5.101-5.099C385.513,624.041,387.798,626.33,387.798,629.14z M520.393,547.543
			c0,2.81-2.284,5.1-5.1,5.1c-2.814,0-5.1-2.29-5.1-5.1c0-2.811,2.285-5.101,5.1-5.101
			C518.108,542.442,520.393,544.732,520.393,547.543z"/>
	</g>
</g>
</svg>
