<svg height="350pt" viewBox="-10 -10 350 350" width="350pt" xmlns="http://www.w3.org/2000/svg">
<path d="m180 136h30v180h-30zm0 0" fill="#A6D513"/>
<path d="m60 241h30v75h-30zm0 0" fill="#A6D513"/>
<path d="m330 0v15c0 69.300781-52.800781 126-120 133.5h-30c-67.199219-7.5-120-64.199219-120-133.5v-15h15c52.5 0 97.800781 30.597656 120 74.398438 22.199219-43.800782 67.5-74.398438 120-74.398438zm0 0" fill="#A6D513"/>
<path d="m150 166v45c0 24.898438-20.097656 45-45 45h-60c-24.902344 0-45-20.101562-45-45v-45h45c11.699219 0 21.898438 4.5 30 11.699219 8.101562-7.203125 18.300781-11.699219 30-11.699219zm0 0" fill="#A6D513"/>
</svg>