<?xml version="1.0" encoding="utf-8"?>
<!-- Generator: Adobe Illustrator 15.0.0, SVG Export Plug-In . SVG Version: 6.00 Build 0)  -->
<!DOCTYPE svg PUBLIC "-//W3C//DTD SVG 1.1//EN" "http://www.w3.org/Graphics/SVG/1.1/DTD/svg11.dtd">
<svg version="1.1" id="Layer_1" xmlns="http://www.w3.org/2000/svg" xmlns:xlink="http://www.w3.org/1999/xlink" x="0px" y="0px"
	 width="398.167px" height="344.982px" viewBox="97.349 14.52 398.167 344.982"
	 enable-background="new 97.349 14.52 398.167 344.982" xml:space="preserve">
<path fill="#576062" d="M262.003,172.232l30.643,14.33l-13.813,29.521l-30.637-14.33L262.003,172.232z"/>
<path fill="#576062" d="M296.192,57.206l60.144,28.138l-12.941,27.676l-60.148-28.137L296.192,57.206z"/>
<path fill="#576062" d="M227.718,282.874c-4.779-2.237-6.844-7.927-4.604-12.71c1.294-2.768,3.744-4.614,6.503-5.253l13.18-28.173
	l10.675,4.993l-13.179,28.175c1.279,2.526,1.431,5.595,0.137,8.361C238.193,283.048,232.501,285.11,227.718,282.874z"/>
<path fill="#576062" d="M227.449,95.915l146.125,68.356l-6.443,13.774l-146.125-68.357L227.449,95.915z"/>
<path fill="#CBD4C7" d="M352.898,101.068L286,69.751c-5.775-2.706-11.965-1.674-13.822,2.298l-41.68,89.19
	c-1.855,3.975,1.318,9.388,7.097,12.092l66.896,31.315c5.777,2.705,11.967,1.674,13.822-2.298l41.682-89.189
	C361.849,109.187,358.671,103.772,352.898,101.068z"/>
<path fill="#CBD4C7" d="M289.054,273.046c3.558,1.666,7.803-0.138,9.012-3.879c8.893-27.516-3.854-58.042-30.785-70.642
	c-26.865-12.569-58.523-2.813-73.954,21.644c-2.097,3.323-0.764,7.739,2.797,9.403L289.054,273.046z"/>
<path fill="#576062" d="M362.347,77.228l-63.965-29.924c-2.783-1.304-6.098-0.1-7.401,2.684l-1.728,3.692
	c-1.303,2.784-0.101,6.099,2.684,7.402l63.969,29.921c2.779,1.304,6.098,0.1,7.398-2.683l1.729-3.692
	C366.333,81.844,365.13,78.529,362.347,77.228z"/>
<path fill="#576062" d="M247.412,65.79L139.347,15.234c-3.789-1.77-8.291-0.135-10.064,3.651L98.065,85.621
	c-1.773,3.786-0.139,8.288,3.647,10.06l108.067,50.554c3.787,1.772,8.29,0.138,10.063-3.646l31.219-66.736
	C252.832,72.065,251.197,67.559,247.412,65.79z"/>
<path fill="#E3E3E2" d="M142.752,84.331l-25.04-11.714c-1.1-0.514-2.412-0.038-2.928,1.063l-7.108,15.199
	c-0.517,1.104-0.041,2.416,1.06,2.928l25.041,11.715c1.102,0.516,2.413,0.041,2.928-1.062l7.108-15.199
	C144.328,86.159,143.853,84.847,142.752,84.331z"/>
<path fill="#E3E3E2" d="M180.146,101.823l-25.038-11.715c-1.103-0.513-2.415-0.036-2.929,1.063l-7.11,15.199
	c-0.516,1.102-0.039,2.412,1.061,2.928l25.041,11.712c1.101,0.517,2.412,0.041,2.928-1.06l7.109-15.199
	C181.726,103.651,181.25,102.34,180.146,101.823z"/>
<path fill="#E3E3E2" d="M217.382,119.247l-25.04-11.715c-1.101-0.513-2.412-0.038-2.929,1.063l-7.108,15.196
	c-0.516,1.103-0.04,2.414,1.061,2.928l25.041,11.714c1.102,0.519,2.413,0.041,2.93-1.06l7.105-15.2
	C218.958,121.073,218.486,119.761,217.382,119.247z"/>
<path fill="#E3E3E2" d="M154.334,59.577l-25.039-11.716c-1.103-0.517-2.413-0.042-2.93,1.062l-7.109,15.198
	c-0.517,1.103-0.042,2.415,1.061,2.93l25.04,11.715c1.102,0.513,2.412,0.038,2.928-1.063l7.11-15.196
	C155.91,61.4,155.435,60.09,154.334,59.577z"/>
<path fill="#E3E3E2" d="M191.726,77.067l-25.038-11.713c-1.103-0.515-2.413-0.04-2.93,1.063l-7.11,15.201
	c-0.516,1.102-0.041,2.413,1.063,2.929l25.037,11.714c1.103,0.512,2.415,0.037,2.929-1.063l7.11-15.199
	C193.305,78.894,192.829,77.584,191.726,77.067z"/>
<path fill="#E3E3E2" d="M228.964,94.49l-25.041-11.712c-1.102-0.517-2.411-0.042-2.928,1.062l-7.109,15.2
	c-0.516,1.1-0.042,2.412,1.061,2.929l25.039,11.711c1.105,0.515,2.415,0.04,2.928-1.06l7.11-15.201
	C230.541,96.316,230.066,95.004,228.964,94.49z"/>
<path fill="#E3E3E2" d="M165.914,34.819l-25.04-11.711c-1.101-0.516-2.412-0.041-2.929,1.062l-7.107,15.198
	c-0.518,1.103-0.042,2.413,1.06,2.93l25.039,11.712c1.102,0.515,2.413,0.04,2.93-1.061l7.107-15.198
	C167.491,36.646,167.018,35.334,165.914,34.819z"/>
<path fill="#E3E3E2" d="M203.309,52.312l-25.04-11.713c-1.104-0.513-2.413-0.036-2.928,1.064l-7.111,15.195
	c-0.516,1.104-0.04,2.415,1.061,2.929l25.041,11.714c1.1,0.515,2.411,0.041,2.928-1.062l7.109-15.199
	C204.887,54.14,204.412,52.829,203.309,52.312z"/>
<path fill="#E3E3E2" d="M240.544,69.733L215.505,58.02c-1.103-0.514-2.414-0.041-2.926,1.063l-7.111,15.197
	c-0.516,1.104-0.04,2.415,1.061,2.929l25.039,11.715c1.104,0.517,2.413,0.039,2.93-1.062l7.109-15.2
	C242.125,71.561,241.648,70.25,240.544,69.733z"/>
<path fill="#1A2123" d="M293.179,129.458c-3.36,2.328-4.195,6.937-1.868,10.3c2.327,3.358,6.937,4.195,10.294,1.869
	c3.363-2.327,4.199-6.938,1.873-10.297C301.147,127.972,296.541,127.133,293.179,129.458z"/>
<path fill="#1A2123" d="M268.021,119.133c-3.359,2.327-4.195,6.938-1.87,10.298c2.326,3.358,6.938,4.195,10.298,1.87
	c3.358-2.327,4.196-6.938,1.868-10.3C275.99,117.645,271.382,116.806,268.021,119.133z"/>
<path fill="#576062" d="M373.119,133.132l-31.336,66.681c-1.777,3.782-0.152,8.29,3.633,10.066l107.979,50.743
	c3.783,1.778,8.289,0.152,10.066-3.632l31.334-66.68c1.779-3.785,0.154-8.292-3.629-10.071L383.187,129.5
	C379.404,127.724,374.896,129.348,373.119,133.132z"/>
<path fill="#E3E3E2" d="M432.939,222.872l-7.137,15.186c-0.52,1.103-0.045,2.413,1.057,2.932l25.021,11.755
	c1.096,0.519,2.408,0.046,2.926-1.057l7.139-15.185c0.518-1.102,0.043-2.412-1.057-2.931l-25.02-11.758
	C434.769,221.298,433.457,221.772,432.939,222.872z"/>
<path fill="#E3E3E2" d="M395.576,205.314l-7.139,15.187c-0.516,1.102-0.045,2.413,1.059,2.93l25.02,11.758
	c1.1,0.517,2.412,0.044,2.93-1.057l7.139-15.187c0.516-1.101,0.043-2.411-1.059-2.933l-25.02-11.756
	C397.404,203.739,396.091,204.211,395.576,205.314z"/>
<path fill="#E3E3E2" d="M358.369,187.832l-7.143,15.185c-0.514,1.102-0.043,2.414,1.061,2.929l25.021,11.76
	c1.1,0.518,2.41,0.044,2.932-1.059l7.133-15.182c0.518-1.104,0.045-2.414-1.055-2.933l-25.021-11.758
	C360.195,186.255,358.884,186.73,358.369,187.832z"/>
<path fill="#E3E3E2" d="M444.562,198.137l-7.135,15.186c-0.518,1.103-0.045,2.413,1.055,2.932l25.021,11.757
	c1.1,0.52,2.412,0.045,2.93-1.059l7.137-15.186c0.518-1.102,0.043-2.414-1.061-2.932l-25.018-11.755
	C446.394,196.562,445.082,197.034,444.562,198.137z"/>
<path fill="#E3E3E2" d="M407.201,180.58l-7.137,15.187c-0.52,1.099-0.047,2.409,1.053,2.932l25.02,11.755
	c1.105,0.52,2.416,0.046,2.934-1.057l7.137-15.188c0.516-1.102,0.045-2.412-1.057-2.932l-25.02-11.758
	C409.029,179.003,407.718,179.477,407.201,180.58z"/>
<path fill="#E3E3E2" d="M369.994,163.095l-7.141,15.188c-0.516,1.098-0.043,2.408,1.061,2.93l25.018,11.758
	c1.102,0.519,2.412,0.043,2.93-1.059l7.137-15.188c0.52-1.1,0.045-2.411-1.057-2.929l-25.02-11.758
	C371.822,161.52,370.509,161.994,369.994,163.095z"/>
<path fill="#E3E3E2" d="M456.187,173.403l-7.137,15.184c-0.518,1.102-0.043,2.414,1.059,2.931l25.016,11.758
	c1.104,0.518,2.414,0.044,2.93-1.06l7.141-15.183c0.516-1.103,0.045-2.413-1.059-2.932l-25.018-11.758
	C458.015,171.824,456.705,172.299,456.187,173.403z"/>
<path fill="#E3E3E2" d="M418.824,155.841l-7.139,15.188c-0.516,1.102-0.043,2.412,1.059,2.931l25.02,11.757
	c1.102,0.519,2.41,0.044,2.93-1.057l7.137-15.187c0.518-1.099,0.045-2.411-1.055-2.931l-25.021-11.758
	C420.652,154.268,419.339,154.741,418.824,155.841z"/>
<path fill="#E3E3E2" d="M381.615,138.358l-7.139,15.188c-0.516,1.102-0.043,2.413,1.059,2.93l25.02,11.758
	c1.102,0.518,2.412,0.045,2.932-1.059l7.135-15.187c0.521-1.101,0.045-2.41-1.055-2.931l-25.02-11.754
	C383.443,136.785,382.13,137.257,381.615,138.358z"/>
<path fill="#1A2123" d="M148.739,294.444c6.694,25.12,23.965,45.821,47.378,56.8c23.416,10.979,50.371,11.014,73.966,0.096
	c3.137-1.449,4.5-5.165,3.045-8.302c-0.643-1.387-1.723-2.43-3.012-3.032c-1.615-0.757-3.543-0.824-5.287-0.019
	c-20.229,9.363-43.34,9.339-63.401-0.067c-20.063-9.406-34.863-27.157-40.606-48.691c-0.495-1.857-1.778-3.296-3.394-4.054
	c-1.287-0.604-2.782-0.776-4.262-0.378C149.833,287.683,147.847,291.111,148.739,294.444z M206.736,328.595
	c16.727,7.842,35.979,7.868,52.83,0.07c3.135-1.449,4.5-5.164,3.046-8.301c-0.646-1.388-1.729-2.432-3.017-3.034
	c-1.615-0.757-3.543-0.824-5.284-0.015c-13.485,6.242-28.892,6.225-42.267-0.047c-13.374-6.271-23.24-18.102-27.07-32.463
	c-0.494-1.862-1.778-3.297-3.39-4.053c-1.288-0.604-2.782-0.775-4.262-0.378c-3.34,0.89-5.326,4.316-4.434,7.648
	C177.678,305.969,190.01,320.753,206.736,328.595z M217.355,305.948c10.041,4.708,21.596,4.724,31.7,0.045
	c3.135-1.448,4.497-5.164,3.044-8.303c-0.643-1.388-1.729-2.431-3.018-3.032c-1.613-0.759-3.541-0.824-5.281-0.017
	c-6.747,3.123-14.451,3.115-21.137-0.021c-6.685-3.135-11.617-9.053-13.531-16.233c-0.494-1.862-1.778-3.296-3.391-4.053
	c-1.287-0.604-2.781-0.774-4.262-0.377c-3.341,0.888-5.325,4.313-4.435,7.648C199.914,292.369,207.315,301.241,217.355,305.948z"/>
<path fill="#1A2123" d="M298.64,167.931l-7.133,15.19c-0.516,1.098-0.36,2.261,0.351,2.597l16.12,7.586
	c0.709,0.334,1.703-0.29,2.221-1.391l7.131-15.189c0.52-1.1,0.361-2.263-0.348-2.597l-16.122-7.586
	C300.15,166.207,299.156,166.83,298.64,167.931z"/>
</svg>
